# xmcd CD database file
#
# Track frame offsets:
#       150
#       20091
#       37889
#       53750
#       69887
#       88031
#       102901
#       117976
#       135042
#       152329
#       166324
#       181674
#
# Disc length: 2630 seconds
#
# Revision: 0
# Processed by: cddbd v1.5.2PL0 Copyright (c) Steve Scherf et al.
# Submitted via: jack 3.1.1
#
DISCID=840a440c
DTITLE=Paula Fernandes - Amanhecer
DYEAR=2015
DGENRE=Sertanejo
TTITLE0=Pronta para você
TTITLE1=A paz deste amor
TTITLE2=Falar de fim
TTITLE3=Depende da gente
TTITLE4=Amanhecer
TTITLE5=Piração
TTITLE6=Água no bico
TTITLE7=E eu?
TTITLE8=Voltaria ao começo
TTITLE9=Menino bonito
TTITLE10=Pra quem sabe sonhar
TTITLE11=Pedaço de chão
EXTD=
EXTT0=
EXTT1=
EXTT2=
EXTT3=
EXTT4=
EXTT5=
EXTT6=
EXTT7=
EXTT8=
EXTT9=
EXTT10=
EXTT11=com Almir Satter
PLAYORDER=
